<svg width="12" height="12" viewBox="0 0 12 12" fill="none" xmlns="http://www.w3.org/2000/svg">
<path fill-rule="evenodd" clip-rule="evenodd" d="M6 10.5C8.48528 10.5 10.5 8.48528 10.5 6C10.5 3.51472 8.48528 1.5 6 1.5C3.51472 1.5 1.5 3.51472 1.5 6C1.5 8.48528 3.51472 10.5 6 10.5ZM6 7.5C6.82843 7.5 7.5 6.82843 7.5 6C7.5 5.17157 6.82843 4.5 6 4.5C5.17157 4.5 4.5 5.17157 4.5 6C4.5 6.82843 5.17157 7.5 6 7.5Z" fill="#2DCCFF"/>
<path d="M10 6C10 8.20914 8.20914 10 6 10V11C8.76142 11 11 8.76142 11 6H10ZM6 2C8.20914 2 10 3.79086 10 6H11C11 3.23858 8.76142 1 6 1V2ZM2 6C2 3.79086 3.79086 2 6 2V1C3.23858 1 1 3.23858 1 6H2ZM6 10C3.79086 10 2 8.20914 2 6H1C1 8.76142 3.23858 11 6 11V10ZM7 6C7 6.55228 6.55228 7 6 7V8C7.10457 8 8 7.10457 8 6H7ZM6 5C6.55228 5 7 5.44772 7 6H8C8 4.89543 7.10457 4 6 4V5ZM5 6C5 5.44772 5.44772 5 6 5V4C4.89543 4 4 4.89543 4 6H5ZM6 7C5.44772 7 5 6.55228 5 6H4C4 7.10457 4.89543 8 6 8V7Z" fill="#285766"/>
</svg>

